<?xml version="1.0" encoding="utf-8"?>
<!-- Generator: Adobe Illustrator 24.0.3, SVG Export Plug-In . SVG Version: 6.00 Build 0)  -->
<svg version="1.1" id="Layer_1" xmlns="http://www.w3.org/2000/svg" xmlns:xlink="http://www.w3.org/1999/xlink" x="0px" y="0px"
	 viewBox="0 0 711.65 153.14" style="enable-background:new 0 0 711.65 153.14;" xml:space="preserve">
<style type="text/css">
	.st0{fill:#33647E;}
	.st1{fill:#42A7C6;}
	.st2{fill:#24272A;}
	.st3{fill:#FFFFFF;}
	.st4{fill:#672F25;}
	.st5{fill:#AA2D29;}
</style>
<g>
	<g>
		<path class="st0" d="M45.16,0.01H9c-4.97,0-9,4.03-9,9v135.12c0,4.97,4.03,9,9,9h30.14c4.97,0,9-4.03,9-9v-5.41c0-4.97-4.03-9-9-9
			h-6.72c-4.97,0-9-4.03-9-9V32.44c0-4.97,4.03-9,9-9h6.37c1.9,0,3.74,0.6,5.28,1.71l83.47,60.44c5.95,4.31,14.28,0.06,14.28-7.29
			v-3.84c0-2.84-1.34-5.52-3.62-7.22L50.54,1.8C48.99,0.64,47.1,0.01,45.16,0.01z"/>
		<path class="st1" d="M143.61,153.14h36.15c4.97,0,9-4.03,9-9V9.02c0-4.97-4.03-9-9-9h-30.14c-4.97,0-9,4.03-9,9v5.41
			c0,4.97,4.03,9,9,9h6.72c4.97,0,9,4.03,9,9v88.28c0,4.97-4.03,9-9,9h-6.37c-1.9,0-3.74-0.6-5.28-1.71L61.21,67.57
			c-5.95-4.31-14.28-0.06-14.28,7.29v3.84c0,2.84,1.34,5.52,3.62,7.22l87.67,65.44C139.78,152.52,141.66,153.14,143.61,153.14z"/>
		<path class="st0" d="M45.54,0h-36C4.58,0,0.57,4.01,0.57,8.97v134.57c0,4.95,4.01,8.97,8.97,8.97h30.01
			c4.95,0,8.97-4.01,8.97-8.97v-5.39c0-4.95-4.01-8.97-8.97-8.97h-6.69c-4.95,0-8.97-4.01-8.97-8.97V32.29
			c0-4.95,4.01-8.97,8.97-8.97h6.34c1.89,0,3.73,0.6,5.26,1.7l83.13,60.19c5.93,4.29,14.23,0.06,14.23-7.26v-3.83
			c0-2.83-1.34-5.49-3.6-7.19L50.9,1.78C49.35,0.62,47.47,0,45.54,0z"/>
		<path class="st1" d="M143.58,152.5h36c4.95,0,8.97-4.01,8.97-8.97V8.97c0-4.95-4.01-8.97-8.97-8.97h-30.01
			c-4.95,0-8.97,4.01-8.97,8.97v5.39c0,4.95,4.01,8.97,8.97,8.97h6.69c4.95,0,8.97,4.01,8.97,8.97v87.91c0,4.95-4.01,8.97-8.97,8.97
			h-6.34c-1.89,0-3.73-0.6-5.26-1.7L61.52,67.27c-5.93-4.29-14.23-0.06-14.23,7.26v3.83c0,2.83,1.34,5.49,3.6,7.19l87.31,65.17
			C139.77,151.88,141.65,152.5,143.58,152.5z"/>
	</g>
	<g>
		<path class="st2" d="M252.39,73.82v30.42h-13.12V48.9h13.12l16.56,30.5V48.9h13.12v55.35h-13.53L252.39,73.82z"/>
		<path class="st2" d="M332.66,48.9h36.16v11.89h-21.98v9.68h19.02v11.81h-19.02v10h21.98v11.97h-36.16V48.9z"/>
		<path class="st2" d="M452.21,48.9c3.36,0,6.23,2.71,6.23,6.23v25.34c0,3.36-2.87,6.23-6.23,6.23h-0.41l6.81,17.55h-13.94
			l-6.89-17.55h-6.07v17.55h-14.27V48.9H452.21z M444.26,61.61c0-0.41-0.41-0.82-0.74-0.82h-11.81v14.76h11.81
			c0.33,0,0.74-0.41,0.74-0.74V61.61z"/>
		<path class="st2" d="M547,48.9l-16.48,55.35h-13.78L500.67,48.9h15.25l7.71,35.18l9.27-35.18H547z"/>
		<path class="st2" d="M592.18,48.9h36.16v11.89h-21.98v9.68h19.02v11.81h-19.02v10h21.98v11.97h-36.16V48.9z"/>
		<path class="st2" d="M675.81,92.28h20.75c0.57,0,0.9-0.33,0.9-0.74V83.5c0-0.41-0.33-0.74-0.9-0.74h-14.27
			c-3.85,0-6.48-2.62-6.48-6.48V55.37c0-3.85,2.62-6.48,6.48-6.48h28.62v11.89H690.9c-0.49,0-0.82,0.41-0.82,0.9v8.12
			c0,0.33,0.33,0.74,0.82,0.74h14.27c3.85,0,6.48,2.62,6.48,6.48v20.75c0,3.85-2.62,6.48-6.48,6.48h-29.36V92.28z"/>
	</g>
</g>
</svg>
